<svg width="64" height="64" viewBox="0 0 64 64" fill="none" xmlns="http://www.w3.org/2000/svg">
  <defs>
    <linearGradient id="goldGradient" x1="0" y1="0" x2="64" y2="64" gradientUnits="userSpaceOnUse">
      <stop stop-color="#FACC15"/>
      <stop offset="1" stop-color="#D97706"/>
    </linearGradient>
  </defs>
  <rect x="4" y="4" width="56" height="56" rx="16" fill="url(#goldGradient)"/>
  <path d="M22 20C21 20 20 21 20 22C20 29 22 34.5 25 38.5C27.5 41.8 31 44 32 44C33 44 36.5 41.8 39 38.5C42 34.5 44 29 44 22C44 21 43 20 42 20C41 20 40 21 40 22C40 28 38.3 32 36.4 35C35 37.2 33.4 38.7 32 39.6C30.6 38.7 29 37.2 27.6 35C25.7 32 24 28 24 22C24 21 23 20 22 20Z" fill="white"/>
  <path d="M28 18V40" stroke="white" stroke-width="2" stroke-linecap="round"/>
  <path d="M36 18V40" stroke="white" stroke-width="2" stroke-linecap="round"/>
  <path d="M20 26H44" stroke="white" stroke-width="2" stroke-linecap="round"/>
</svg>